# Aspose.3D Wavefront OBJ Exporter
# Copyright 2004-2022 Aspose Pty Ltd.
# File created: 10/12/2022 23:59:41


#
# object obj_37125813
#

v 0.00876259803771972 -1.052593688655179E-06 0.03626585006713867
v 0.00867491867393255 -1.052593688655179E-06 0.05031852796673775
v -0.00867491867393255 -1.052593688655179E-06 0.05031852796673775
v 0.01039778999984264 0.01737352460622787 0.01925345510244369
v 0.00876259803771972 0.0076902937144041 0.03626585006713867
v -0.00876259803771972 0.0076902937144041 0.03626585006713867
v -0.00876259803771972 -1.052593688655179E-06 0.03626585006713867
v 0.01037830021232366 0.00253522302955389 0.00382494879886508
v -0.01037830021232366 0.00253522302955389 0.00015254199388436973
v 0.01037830021232366 0.00253522302955389 0.00015254199388436973
v 0.01038920041173696 0.02627985924482345 0.00013333300012163818
v 0.00867491867393255 0.01512888353317976 0.05031852796673775
v 0.00876259803771972 0.01512888353317976 0.03626585006713867
v -0.00876259803771972 0.01512888353317976 0.03626585006713867
v -0.01039778999984264 0.02512640878558159 0.01925345510244369
v 0.01039778999984264 0.02512640878558159 0.01925345510244369
v 0.00646717846393585 0.01512888353317976 0.0537005178630352
v -0.00646717846393585 -1.052593688655179E-06 0.0537005178630352
v 0.00646717846393585 -1.052593688655179E-06 0.0537005178630352
v -0.00867491867393255 0.01512888353317976 0.05031852796673775
v 0.01039778999984264 0.01140660047531128 0.01925345510244369
v -0.01039778999984264 0.01737352460622787 0.01925345510244369
v 0.01039778999984264 0.01140660047531128 0.00382494879886508
v -0.01039778999984264 0.01140660047531128 0.01925345510244369
v -0.01039778999984264 0.01140660047531128 0.00382494879886508
v -0.01037830021232366 0.00253522302955389 0.00382494879886508
v -0.00646717846393585 0.01512888353317976 0.0537005178630352
v -0.01038920041173696 0.02627985924482345 0.00013333300012163818
# 28 vertices

vn 0 -1 1.457154709394448E-11
vn 0 -0.86908119916915888 -0.4946695566177368
vn 0 0 -1
vn 0 -1 0
vn 0 -0.00080898212036117 -0.99999964237213136
vn 0 1 -2.363513544878515E-07
vn 0 0.99818527698516848 0.06021705642342567
vn 0 0 1
vn 0 1 0
vn 0 0.86215043067932128 0.50665235519409176
vn 0.9999805092811584 0 0.00623921398073434
vn 0.9999805688858032 0 0.00623921165242791
vn 0.8373732566833496 0 0.54663139581680296
vn 0.8373732566833496 0 0.54663151502609256
vn 0.99541246891021728 0 0.09567669034004212
vn 0.99541252851486208 0 0.09567675739526748
vn 1 0 0
vn 0.9999998807907104 0 -0.00044924317626282573
vn 0.9999998807907104 0.00052699376828968 -0.00020379114721436054
vn 0.99999105930328368 -0.00046235075569711626 -0.00418992061167955
vn 0.99999767541885376 -0.00219689845107495 0
vn 0 -0.9999999403953552 -1.0152033727561793E-11
vn 0 0.86215037107467648 0.50665241479873656
vn 0 0.9999999403953552 1.6633092059237242E-07
vn 0 0.99818533658981328 0.06021713465452194
vn 0 1 2.6765016514218587E-07
vn 0 -0.86908125877380368 -0.49466946721076968
vn 0 -1 -1.0143099467979644E-12
vn -0.9999805092811584 0 0.00623921398073434
vn -0.9999805688858032 0 0.00623921165242791
vn -0.8373732566833496 0 0.54663139581680296
vn -0.8373732566833496 0 0.54663151502609256
vn -0.99541246891021728 0 0.09567669034004212
vn -0.99541252851486208 0 0.09567675739526748
vn -1 0 0
vn -0.9999998807907104 0 -0.00044924317626282573
vn -0.9999998807907104 0.00052699376828968 -0.00020379114721436054
vn -0.99999105930328368 -0.00046235075569711626 -0.00418992061167955
vn -0.99999767541885376 -0.00219689845107495 0
# 39 vertex normals

g obj_37125813
s 1
f 1//1 2//1 3//1
f 4//2 5//2 6//2
f 5//3 1//3 7//3
f 8//4 9//4 10//4
f 11//5 10//5 9//5
f 12//6 13//6 14//6
f 15//7 16//7 11//7
f 17//8 18//8 19//8
f 17//9 12//9 20//9
f 21//8 4//8 22//8
f 13//10 16//10 15//10
f 19//4 3//4 2//4
f 23//4 21//4 24//4
f 8//8 23//8 25//8
f 13//11 12//11 5//11
f 1//11 5//11 2//11
f 5//12 12//12 2//12
f 17//13 2//13 12//13
f 2//14 17//14 19//14
f 13//15 4//15 16//15
f 4//16 13//16 5//16
f 21//17 23//17 4//17
f 16//18 4//18 11//18
f 4//19 23//19 11//19
f 11//20 23//20 10//20
f 8//21 10//21 23//21
f 8//8 25//8 26//8
f 23//4 24//4 25//4
f 19//22 18//22 3//22
f 13//23 15//23 14//23
f 21//8 22//8 24//8
f 17//24 20//24 27//24
f 17//8 27//8 18//8
f 15//25 11//25 28//25
f 12//26 14//26 20//26
f 11//5 9//5 28//5
f 8//4 26//4 9//4
f 5//3 7//3 6//3
f 4//27 6//27 22//27
f 1//28 3//28 7//28
f 14//29 6//29 20//29
f 7//29 3//29 6//29
f 6//30 3//30 20//30
f 27//31 20//31 3//31
f 3//32 18//32 27//32
f 14//33 15//33 22//33
f 22//34 6//34 14//34
f 24//35 22//35 25//35
f 15//36 28//36 22//36
f 22//37 28//37 25//37
f 28//38 9//38 25//38
f 26//39 25//39 9//39
#52 polygons

