<?xml version="1.0" encoding="UTF-8" standalone="no"?>
<!-- Created with Inkscape (http://www.inkscape.org/) -->

<svg
   width="61.620319mm"
   height="46.962341mm"
   viewBox="0 0 61.620319 46.962341"
   version="1.1"
   id="svg18591"
   sodipodi:docname="frog_left.svg"
   inkscape:version="1.1.2 (0a00cf5339, 2022-02-04)"
   xmlns:inkscape="http://www.inkscape.org/namespaces/inkscape"
   xmlns:sodipodi="http://sodipodi.sourceforge.net/DTD/sodipodi-0.dtd"
   xmlns="http://www.w3.org/2000/svg"
   xmlns:svg="http://www.w3.org/2000/svg">
  <sodipodi:namedview
     id="namedview18593"
     pagecolor="#ffffff"
     bordercolor="#666666"
     borderopacity="1.0"
     inkscape:pageshadow="2"
     inkscape:pageopacity="0.0"
     inkscape:pagecheckerboard="0"
     inkscape:document-units="mm"
     showgrid="false"
     fit-margin-top="0"
     fit-margin-left="0"
     fit-margin-right="0"
     fit-margin-bottom="0"
     inkscape:zoom="0.77771465"
     inkscape:cx="-291.23793"
     inkscape:cy="129.22477"
     inkscape:window-width="3370"
     inkscape:window-height="1376"
     inkscape:window-x="70"
     inkscape:window-y="27"
     inkscape:window-maximized="1"
     inkscape:current-layer="layer1" />
  <defs
     id="defs18588" />
  <g
     inkscape:label="Layer 1"
     inkscape:groupmode="layer"
     id="layer1"
     transform="translate(-65.12798,-114.30236)">
    <path
       fill-rule="evenodd"
       clip-rule="evenodd"
       d="m 121.9934,119.51189 c 2.32282,0.21756 3.4849,0.96665 3.4849,2.24792 0,2.38797 -1.17313,4.55968 -3.51747,6.51382 -1.06369,0.84615 -3.50638,2.40947 -7.32804,4.6893 -3.29991,1.95415 -5.66637,3.73373 -7.10007,5.34069 -2.10526,2.36777 -3.15921,5.0925 -3.15921,8.1755 l -0.0977,3.54938 c 0.10931,1.15164 0.44556,1.90073 1.0103,2.24792 0.6514,0.0651 1.64018,0 2.96444,-0.19607 h 0.12901 c 1.52033,0.0866 2.30133,1.17314 2.34497,3.25691 0,0.15242 -0.0748,0.3042 -0.22797,0.45662 -0.15116,0.15111 -0.31397,0.20584 -0.48852,0.16285 -0.9341,-0.0665 -1.88903,-0.0214 -2.86609,0.12962 -2.30132,0.34719 -3.83207,0.52176 -4.5916,0.52176 -1.065,0 -2.12872,-1.13992 -3.19177,-3.41976 -0.89043,-1.91115 -1.33599,-3.45297 -1.33599,-4.62611 v -0.0957 l -1.07477,1.23632 c -1.8877,1.97564 -3.79886,2.96444 -5.73152,2.96444 -0.39083,0 -0.82595,-0.043 -1.30275,-0.12962 0.12975,0.54195 0.19474,1.06371 0.19474,1.56202 0,1.54182 -0.58495,2.8778 -1.75808,4.006 l -0.0977,0.13092 c -1.30277,1.17184 -2.85501,1.75808 -4.65738,1.75808 -1.17184,0 -2.56123,-0.6846 -4.16755,-2.05185 -2.10851,0.0443 -3.66078,0.0339 -4.65933,-0.0313 -2.30133,-0.0665 -4.36491,-1.90073 -6.18813,-5.50483 -1.45519,-2.82179 -2.18214,-5.17784 -2.18214,-7.06685 0,-1.0637 0.22797,-2.00886 0.6833,-2.83351 0.62988,-1.19464 1.64995,-1.7913 3.06216,-1.7913 0.73801,0 1.49751,0.15111 2.27983,0.45532 l 0.29312,-0.45532 -0.81423,-0.87937 c -1.0422,-1.17314 -1.56332,-2.35605 -1.56332,-3.55068 0,-2.06228 1.32427,-3.52789 3.97344,-4.39683 1.21614,-0.39083 2.66025,-0.63966 4.33169,-0.74909 1.93266,-2.82179 3.83338,-4.54795 5.69959,-5.17784 3.56111,-1.23763 7.99116,-2.62702 13.28819,-4.16884 l 9.7056,-2.83352 c 0.30422,-0.95558 0.59667,-1.60696 0.87937,-1.95414 0.78102,-0.95558 2.05186,-1.43239 3.81058,-1.43239 1.58547,0 2.85631,0.6618 3.8106,1.98606 0.73932,1.0865 1.52031,1.69359 2.34628,1.82452 0.5628,0.0645 1.83364,0.10749 3.80928,0.12898 z m -9.9668,-2.67001 c -1.34575,0 -2.29024,0.33741 -2.83352,1.01029 -0.21763,0.30419 -0.4553,0.90086 -0.71651,1.7913 -0.0652,0.23775 -0.21764,0.39083 -0.45661,0.45531 l -10.03,2.9638 c -4.9733,1.43238 -9.37991,2.80029 -13.2237,4.10305 -1.67144,0.58625 -3.43019,2.24792 -5.27621,4.98307 -0.54324,0.80251 -1.13991,1.74831 -1.79129,2.83352 -1.78088,3.12728 -2.76837,4.80915 -2.96444,5.04821 l -1.10604,1.66168 c 1.17182,0.58624 2.51888,1.46561 4.03791,2.63744 2.62701,2.10657 4.34341,3.89787 5.14592,5.37391 0.0867,0.17457 0.10808,0.33741 0.0652,0.48854 -0.0652,0.17457 -0.17332,0.30419 -0.32572,0.39213 -0.17332,0.0866 -0.3361,0.10812 -0.48851,0.0651 -0.17332,-0.0651 -0.3042,-0.17458 -0.39083,-0.3257 -0.73804,-1.32425 -2.33457,-2.98593 -4.78767,-4.98307 -1.67144,-1.32426 -3.1807,-2.26811 -4.52776,-2.83351 -0.82464,-0.34719 -1.56201,-0.52176 -2.21339,-0.52176 -0.89045,0 -1.54182,0.38041 -1.95414,1.13992 -0.32572,0.62989 -0.48855,1.3679 -0.48855,2.2147 0,1.69359 0.67287,3.85358 2.01929,6.4806 1.56332,3.12729 3.2569,4.74402 5.08012,4.85345 h 3.29013 c -0.41232,-0.39083 -1.08519,-1.09693 -2.01929,-2.11699 -3.10578,-3.82166 -4.7225,-5.78623 -4.85345,-5.89566 -0.25924,-0.32569 -0.23782,-0.63966 0.0665,-0.94385 0.32569,-0.26056 0.63966,-0.23906 0.94385,0.0651 l 4.78767,5.92757 c 1.28128,1.36791 2.31307,2.3997 3.09406,3.09407 1.4337,1.25977 2.59511,1.88901 3.4849,1.88901 1.45519,0 2.68174,-0.43382 3.68032,-1.30277 l 0.0977,-0.0977 c 0.95557,-0.91193 1.43237,-1.97564 1.43237,-3.19177 0,-0.65138 -0.15116,-1.3679 -0.4553,-2.14891 v -0.0332 c -0.41233,-1.0852 -1.10671,-2.23685 -2.08377,-3.45167 -1.21614,-1.54183 -2.62704,-2.90973 -4.23398,-4.10436 -0.15239,-0.10813 -0.23905,-0.24948 -0.26057,-0.4234 -0.0431,-0.17327 -0.0123,-0.32569 0.0977,-0.45532 0.10808,-0.15241 0.25926,-0.23905 0.4553,-0.26055 0.17455,-0.043 0.32572,-0.0118 0.45534,0.0977 1.67275,1.21613 3.17028,2.65894 4.49452,4.33169 0.99858,1.28127 1.7164,2.44268 2.15022,3.4849 0.75952,0.15111 1.35747,0.22797 1.79131,0.22797 1.56332,0 3.15921,-0.84745 4.78764,-2.54039 0.45533,-0.45532 1.31449,-1.54182 2.57231,-3.25691 l 0.71718,-2.89931 c 0.86766,-3.51746 1.31319,-5.30876 1.33468,-5.3739 0.0431,-0.17457 0.13098,-0.31527 0.26057,-0.4234 0.15239,-0.0866 0.31525,-0.11984 0.48852,-0.0977 0.17455,0.043 0.31527,0.13093 0.4234,0.26055 0.10808,0.15112 0.14131,0.3042 0.0977,0.45532 -0.10931,0.54325 -0.56474,2.36777 -1.3692,5.47161 l -0.74714,3.02958 c -0.30419,1.3894 -0.45661,2.24662 -0.45661,2.57231 0,0.99857 0.40188,2.35605 1.20503,4.07114 0.50026,1.0865 0.97709,1.85774 1.4337,2.31306 0.21763,0.26055 0.41232,0.39083 0.58626,0.39083 0.67286,0 2.13847,-0.16286 4.39681,-0.48854 0.82467,-0.13029 1.62846,-0.1954 2.41012,-0.1954 -0.10808,-0.80381 -0.44554,-1.23763 -1.0103,-1.30277 -1.49751,0.19476 -2.61593,0.24948 -3.3533,0.16286 l -0.19597,-0.0658 c -1.0637,-0.49896 -1.64995,-1.62846 -1.75808,-3.38654 l 0.0652,-3.5826 c 0,-3.38654 1.16141,-6.4057 3.48489,-9.05422 1.52033,-1.67144 3.97344,-3.52788 7.36126,-5.56866 3.99493,-2.36778 6.39397,-3.8868 7.19714,-4.55968 2.04206,-1.73789 3.06213,-3.5826 3.06213,-5.53675 0,-0.43512 -0.77122,-0.76081 -2.31304,-0.97707 -1.93266,0 -3.22371,-0.0443 -3.87508,-0.13093 -1.17313,-0.15111 -2.24793,-0.93408 -3.22499,-2.34497 -0.71718,-0.97708 -1.63954,-1.46561 -2.76968,-1.46561 z m -40.38571,19.4431 c 0,0.91194 0.40191,1.8128 1.20506,2.70324 l 0.6514,0.65138 0.19597,-0.26055 2.898,-5.04821 c 0.54324,-0.93409 0.91192,-1.53075 1.10798,-1.79131 -0.99855,0.0866 -1.99713,0.27228 -2.99635,0.55368 -2.04142,0.67288 -3.06215,1.73789 -3.06215,3.19177 z"
       id="path1"
       style="fill:#000000;fill-opacity:1;stroke:#003d3c;stroke-width:2.54;stroke-linecap:round;stroke-linejoin:round;stroke-dasharray:none;stroke-opacity:1;paint-order:fill markers stroke" />
    <path
       style="fill:#289989;fill-opacity:1;stroke:none;stroke-width:2.54;stroke-linecap:round;stroke-linejoin:round;stroke-dasharray:none;stroke-opacity:1;paint-order:fill markers stroke"
       d="m 83.17168,157.30521 c -0.93305,-0.33583 -2.10039,-1.27785 -4.02936,-3.2516 -0.93798,-0.95978 -1.22809,-1.30068 -3.51597,-4.13148 -1.71318,-2.11972 -2.56506,-3.13928 -2.72177,-3.25755 -0.40913,-0.30875 -0.60833,-0.37319 -1.16292,-0.37613 -0.42746,-0.002 -0.52076,0.0113 -0.73449,0.10685 -0.3779,0.16896 -0.65251,0.38716 -0.86328,0.68593 -0.2908,0.4122 -0.36086,0.63852 -0.36086,1.16556 0,0.42621 0.008,0.46319 0.16428,0.779 0.10414,0.21013 0.32935,0.52512 0.61499,0.86015 0.24786,0.29073 1.25447,1.51265 2.2369,2.71538 0.98242,1.20272 1.8933,2.31698 2.02422,2.47612 0.23397,0.28446 0.23609,0.28958 0.12433,0.30349 -0.18169,0.0226 -0.56246,-0.0729 -0.8695,-0.21811 -1.19388,-0.56462 -2.39583,-2.16294 -3.65604,-4.86172 -0.9501,-2.03462 -1.4182,-3.66525 -1.4182,-4.94032 0,-1.07004 0.32568,-1.90379 0.79452,-2.03401 1.1502,-0.31948 3.86331,1.03846 6.61686,3.31179 1.93304,1.59593 3.25435,2.96207 4.04971,4.1871 0.3456,0.53228 0.57965,0.76486 0.94242,0.93648 0.48969,0.23167 0.99806,0.25222 1.51019,0.0611 1.11212,-0.41513 1.57543,-1.66087 1.02306,-2.75088 -0.18121,-0.35764 -0.78996,-1.24004 -1.18528,-1.71813 -0.51107,-0.61806 -2.19882,-2.29361 -3.00124,-2.97952 -1.26863,-1.08442 -2.59877,-2.08284 -3.69359,-2.77248 -0.2944,-0.18544 -0.54343,-0.34406 -0.55337,-0.35247 -0.01,-0.008 0.13216,-0.24088 0.31578,-0.51657 0.41235,-0.61914 0.76446,-1.21185 2.07991,-3.50108 2.30696,-4.01467 3.63099,-5.92193 5.09104,-7.33368 0.8751,-0.84612 1.51709,-1.26479 2.4358,-1.58851 2.00954,-0.70808 7.56587,-2.44248 11.50697,-3.59188 2.57006,-0.74955 11.05337,-3.25683 11.39568,-3.36805 0.45744,-0.14863 0.67697,-0.27753 0.92597,-0.54373 0.25743,-0.27522 0.34067,-0.44258 0.58142,-1.16882 0.26918,-0.8121 0.3521,-0.98801 0.52959,-1.1234 0.39603,-0.30205 1.44674,-0.46975 2.08954,-0.3335 0.53896,0.11423 0.90337,0.38866 1.40013,1.05439 0.46863,0.62801 1.33487,1.5033 1.80668,1.82553 1.13485,0.77509 2.07454,0.98226 4.48524,0.98883 1.09588,0.003 1.92815,0.0583 2.3704,0.15745 0.39918,0.0895 0.39074,0.07 0.25657,0.59544 -0.17246,0.67538 -0.55872,1.42294 -1.07503,2.0805 -0.37177,0.47346 -1.19674,1.28435 -1.64804,1.61993 -0.85674,0.63704 -2.72618,1.8182 -5.73526,3.62369 -4.27419,2.56457 -6.24388,3.98691 -8.10268,5.85108 -2.03899,2.04489 -3.33169,4.30152 -3.98254,6.95213 -0.35496,1.44555 -0.42262,2.29542 -0.43563,5.47156 -0.01,2.38948 -0.008,2.43219 0.0931,2.89269 0.24119,1.09412 0.61023,1.86266 1.20009,2.49931 l 0.19164,0.20682 -0.20537,0.0163 c -0.19478,0.0155 -0.2132,0.007 -0.35761,-0.16945 -0.73218,-0.89354 -1.83171,-3.43523 -2.04697,-4.7318 -0.0664,-0.39979 -0.0695,-0.51524 -0.0228,-0.82351 0.14169,-0.93174 0.44564,-2.23535 1.43806,-6.16767 1.06818,-4.23261 1.07286,-4.25326 1.07628,-4.74123 0.003,-0.46929 -0.003,-0.503 -0.14584,-0.79383 -0.18307,-0.37244 -0.33827,-0.55354 -0.65397,-0.7631 -0.39833,-0.2644 -0.68506,-0.34347 -1.17764,-0.32477 -0.3675,0.0139 -0.46545,0.0358 -0.74789,0.16661 -0.37823,0.1752 -0.73258,0.52366 -0.91631,0.90103 -0.0729,0.14972 -0.48387,1.73112 -1.12559,4.33114 l -1.01076,4.09533 -0.68858,0.91254 c -0.98795,1.30932 -1.34503,1.73165 -1.99477,2.35927 -1.10781,1.07009 -2.13215,1.65188 -3.13121,1.77841 -0.39037,0.0494 -1.2046,-0.0148 -1.25913,-0.0994 -0.0193,-0.0298 -0.15629,-0.27459 -0.30459,-0.5439 -0.95112,-1.72726 -2.61469,-3.79314 -4.31218,-5.35505 -0.63891,-0.58787 -1.72085,-1.47689 -2.16193,-1.77641 -0.45072,-0.30609 -0.87099,-0.40653 -1.36689,-0.32668 -0.49181,0.0792 -0.76468,0.20478 -1.07445,0.49456 -0.48858,0.45704 -0.7008,1.02154 -0.60635,1.61281 0.11216,0.70214 0.28462,0.95684 1.06969,1.57987 1.71442,1.36057 3.14272,2.83674 4.27442,4.41769 0.65789,0.91905 1.08133,1.70883 1.37157,2.55825 0.40728,1.19188 0.40834,1.91963 0.004,2.75989 -0.3946,0.81996 -1.16615,1.47737 -2.11947,1.8059 -0.63928,0.22031 -1.5054,0.28023 -1.91579,0.13253 z"
       id="path34" />
    <path
       style="fill:#289989;fill-opacity:1;stroke:none;stroke-width:2.54;stroke-linecap:round;stroke-linejoin:round;stroke-dasharray:none;stroke-opacity:1;paint-order:fill markers stroke"
       d="m 73.15122,137.14738 c -0.53146,-1.15303 -0.0715,-1.99288 1.43936,-2.62785 0.17138,-0.072 0.35534,-0.14423 0.40881,-0.16044 0.0763,-0.0231 -0.0803,0.2802 -0.72689,1.40816 -0.45323,0.79071 -0.85915,1.49367 -0.90204,1.56214 l -0.078,0.12447 z"
       id="path35" />
  </g>
</svg>
